<?xml version="1.0" encoding="UTF-8"?>
<svg id="Layer_1" xmlns="http://www.w3.org/2000/svg" version="1.1" viewBox="0 0 106 31">
  <!-- Generator: Adobe Illustrator 29.5.1, SVG Export Plug-In . SVG Version: 2.1.0 Build 141)  -->
  <defs>
    <style>
      .st0 {
        fill: #fafdff;
      }

      .st1 {
        fill: #a5a5a5;
      }
    </style>
  </defs>
  <path class="st0" d="M11.48,4.97v8.48H3.69V4.97H0v20.23h3.69v-8.2h7.78v8.2h3.7V4.97h-3.7ZM27,18.67c0,1.69-1.37,3.06-3.06,3.06s-3.06-1.37-3.06-3.06v-8.67h-3.5v8.67c0,3.62,2.94,6.55,6.56,6.55,3.62,0,6.55-2.93,6.55-6.55v-8.67h-3.49v8.67ZM52.97,10.89c0-1.78,1.17-2.34,2.46-2.34,1.04,0,2.41.79,3.31,1.75l2.29-2.71c-1.15-1.55-3.47-2.62-5.37-2.62-3.8,0-6.55,2.23-6.55,5.92,0,6.85,8.37,4.68,8.37,8.51,0,1.18-1.15,2.23-2.46,2.23-2.07,0-2.74-1.01-3.7-2.09l-2.55,2.65c1.63,2,3.64,3.02,6.05,3.02,3.61,0,6.52-2.25,6.52-5.78,0-7.6-8.37-5.24-8.37-8.54M104.77,21.97c-2.07,0-2.66-.9-2.66-2.27v-6.07h3.22v-3.08h-3.22v-4.06l-3.55,1.6v12.37c0,3.17,2.18,4.76,5.18,4.76.47,0,.94-.03,1.4-.11l.87-3.19c-.39.03-.84.05-1.23.05M40.34,10.1c-1.74,0-2.95.5-4.12,1.65v-6.66h-3.51v12.34c0,4.62,3.34,7.79,7.09,7.79,4.16,0,7.83-3.22,7.83-7.56s-3.37-7.56-7.29-7.56M40.32,21.69c-2.2,0-3.98-1.78-3.98-3.98s1.78-3.98,3.98-3.98,3.98,1.78,3.98,3.98-1.78,3.98-3.98,3.98h0M78.46,17.48c0-4.35-3.65-7.56-7.83-7.56-3.75,0-7.09,3.16-7.09,7.79v12.35h3.51v-6.67c1.17,1.15,2.38,1.65,4.12,1.65,3.92,0,7.29-3.28,7.29-7.56M75.14,17.44c0,2.2-1.78,3.98-3.98,3.98s-3.98-1.78-3.98-3.98h0c0-2.2,1.78-3.98,3.98-3.98s3.98,1.78,3.98,3.98"/>
  <path class="st1" d="M89.81,9.75v-3.53c.95-.44,1.56-1.4,1.57-2.45v-.08c0-1.5-1.22-2.72-2.72-2.72h-.08c-1.5,0-2.72,1.22-2.72,2.72h0v.08c0,1.05.61,2,1.57,2.45v3.53c-1.34.21-2.6.76-3.66,1.61l-9.67-7.53c.07-.25.11-.51.11-.76,0-1.69-1.36-3.06-3.05-3.07-1.69,0-3.06,1.36-3.07,3.05s1.36,3.06,3.05,3.07c0,0,0,0,0,0,.53,0,1.05-.14,1.51-.41l9.53,7.41c-1.75,2.65-1.7,6.09.12,8.69l-2.9,2.9c-.23-.07-.48-.11-.72-.12-1.39,0-2.51,1.13-2.51,2.51,0,1.39,1.13,2.51,2.51,2.51,1.39,0,2.51-1.12,2.51-2.51,0-.25-.04-.49-.12-.72l2.87-2.87c3.38,2.6,8.23,1.97,10.84-1.41,2.6-3.38,1.97-8.23-1.41-10.84-1.04-.8-2.26-1.32-3.55-1.52M88.62,21.35c-2.19.06-4.01-1.67-4.07-3.85-.06-2.19,1.67-4.01,3.85-4.07.07,0,.15,0,.22,0,2.19.08,3.9,1.91,3.82,4.1-.07,2.08-1.74,3.75-3.82,3.82"/>
</svg>